<?xml version="1.0" standalone="no"?><!DOCTYPE svg PUBLIC "-//W3C//DTD SVG 1.1//EN" "http://www.w3.org/Graphics/SVG/1.1/DTD/svg11.dtd"><svg t="1590417514900" class="icon" viewBox="0 0 1024 1024" version="1.1" xmlns="http://www.w3.org/2000/svg" p-id="6374" xmlns:xlink="http://www.w3.org/1999/xlink" width="24" height="24"><defs><style type="text/css"></style></defs><path d="M508.74077 65.370471c-247.026716 0-447.274148 200.247432-447.274148 447.274148 0 247.028515 200.247432 447.274148 447.274148 447.274148s447.274148-200.245434 447.274148-447.274148C956.014918 265.617903 755.767486 65.370471 508.74077 65.370471zM509.450888 825.736543c-34.495812 0-62.461451-26.162862-62.461451-58.442176 0-32.277716 27.965639-58.442376 62.461451-58.442376 34.506804 0 62.471444 26.16466 62.471444 58.442376C571.922333 799.573881 543.957693 825.736543 509.450888 825.736543zM621.45475 338.605817l-49.630151 276.31326c0 0.306592 0.097734 0.5906 0.097734 0.895393 0 32.279514-27.965639 58.442176-62.471444 58.442176-34.495812 0-62.461451-26.162862-62.461451-58.442176 0-0.304993 0.087541-0.5896 0.097734-0.895393l-49.641943-276.31326 0.699326 0c-0.437304-3.800024-0.699326-7.621832-0.699326-11.509596 0-58.093613 50.144002-105.179688 112.004861-105.179688s112.003861 47.086076 112.003861 105.179688c0 3.888564-0.262022 7.709573-0.699126 11.509596L621.45475 338.605817z" p-id="6375" fill="#f22512"></path></svg>