<svg width="5184" height="5185" viewBox="0 0 5184 5185" xmlns="http://www.w3.org/2000/svg"><title>Google_Chrome_1_</title><g fill="none" fill-rule="evenodd"><path d="M625.9 903C1830.8-499.3 4065-222.5 4900.3 1415.6c-587.9.2-1508.6-.2-2007.3 0-361.7.1-595.1-8.1-848 125-297.3 156.5-521.6 446.6-599.9 787.3L625.9 903z" fill="#EA4335"/><path d="M1729.7 2591.9c0 475.3 386.5 862 861.5 862s861.4-386.7 861.4-862-386.5-862-861.4-862c-475.1.1-861.5 386.8-861.5 862z" fill="#4285F4"/><path d="M2925.5 3720.1c-483.5 143.7-1049.4-15.7-1359.3-550.7C1329.6 2761 704.5 1672 420.4 1176.9c-995.1 1525.2-137.5 3603.6 1669.1 3958.3l836-1415.1z" fill="#34A853"/><path d="M3391.3 1730c402.7 374.5 490.5 981.1 217.6 1451.4-205.5 354.3-861.5 1461.4-1179.4 1997.5C4290.9 5293.6 5647.8 3469.4 5034.9 1730H3391.3z" fill="#FBBC05"/></g></svg>