<svg height="5185" viewBox="0 0 5184 5185" width="5184" xmlns="http://www.w3.org/2000/svg"><g fill="none" fill-rule="evenodd"><path d="m625.9 903c1204.9-1402.3 3439.1-1125.5 4274.4 512.6-587.9.2-1508.6-.2-2007.3 0-361.7.1-595.1-8.1-848 125-297.3 156.5-521.6 446.6-599.9 787.3z" fill="#ea4335"/><path d="m1729.7 2591.9c0 475.3 386.5 862 861.5 862s861.4-386.7 861.4-862-386.5-862-861.4-862c-475.1.1-861.5 386.8-861.5 862z" fill="#4285f4"/><path d="m2925.5 3720.1c-483.5 143.7-1049.4-15.7-1359.3-550.7-236.6-408.4-861.7-1497.4-1145.8-1992.5-995.1 1525.2-137.5 3603.6 1669.1 3958.3z" fill="#34a853"/><path d="m3391.3 1730c402.7 374.5 490.5 981.1 217.6 1451.4-205.5 354.3-861.5 1461.4-1179.4 1997.5 1861.4 114.7 3218.3-1709.5 2605.4-3448.9z" fill="#fbbc05"/></g></svg>