<svg height="48" viewBox="0 0 48 48" width="48" xmlns="http://www.w3.org/2000/svg"><path d="m40.69 35.42c-9.15 11.88-21.41 8.8-26.23 6.1-7.35-4.11-12.5-13.68-9.44-23.25.9-2.82 2.27-5.23 3.98-7.23 1.67.13 3.65.13 6-.04 14-1 18 11 17 14-.51 1.53-2.32 2.02-3.97 2.13.16-.22.36-.54.64-1.02.87-1.54.98-4.49-1.73-6.27-2.61-1.7-5.43-.65-6.88 1.28-1.45 1.92-.88 4.81-.37 6.09 2.2 5.52 6.26 6.95 9.02 7.78s6.86.71 9.05-.19c2.18-.91 2.8-1.43 3.22-.97.43.46.13.99-.29 1.59z" fill="#1e88e5"/><path d="m40.732 35.42c-3.48 4.52-7.41 6.87-11.21 7.91-.03.01-.06.01-.08.02-2.2.42-3.95.08-5.85-.29-3.09-.6-7.35-4.01-8.38-10.18-.88-5.31 1.63-9.81 5.59-12.54-.26.24-.49.5-.7.78-1.45 1.92-.88 4.81-.37 6.09 2.2 5.52 6.26 6.95 9.02 7.78s6.86.71 9.05-.19c2.18-.91 2.8-1.43 3.22-.97.43.46.13.99-.29 1.59z" fill="#0d47a1"/><path d="m26.94 4.25c.02.26.03.54.03.81 0 3.78-1.75 7.14-4.48 9.32-1.02-.52-2.21-.94-3.65-1.22-4.07-.78-10.63 1.1-13.3 5.77-.88 1.53-1.25 3.1-1.41 4.55.04-1.71.33-3.46.89-5.21 3.29-10.26 12.84-15.22 21.92-14.02z" fill="#00e5ff"/><path d="m41.4 27.89c-2.76 2.78-6.27 2.86-8.67 2.73-2.41-.12-3.59-.82-4.69-1.5-1.11-.69-.48-1.37-.37-1.52s.38-.41 1-1.49c.29-.51.5-1.18.54-1.91 4.62-3.43 7.96-8.49 9.16-14.34 2.92 2.95 4.3 6.21 4.79 7.61.88 2.52 1.55 7.09-1.76 10.42z" fill="#00e676"/><path d="m38.37 9.85v.01c-1.2 5.85-4.54 10.91-9.16 14.34.03-.42 0-.87-.1-1.32 0-.02-.01-.04-.01-.05-.25-1.47-.99-3.33-2.22-4.77-1.22-1.44-2.52-2.73-4.39-3.68 2.73-2.18 4.48-5.54 4.48-9.32 0-.27-.01-.55-.03-.81.4.05.79.11 1.19.19 4.61.89 7.91 3.05 10.24 5.41z" fill="#1de9b6"/></svg>